<?xml version="1.0" standalone="no"?>
<!DOCTYPE svg PUBLIC "-//W3C//DTD SVG 20010904//EN"
 "http://www.w3.org/TR/2001/REC-SVG-20010904/DTD/svg10.dtd">
<svg version="1.0" xmlns="http://www.w3.org/2000/svg"
 width="700.000000pt" height="700.000000pt" viewBox="0 0 700.000000 700.000000"
 preserveAspectRatio="xMidYMid meet">
<metadata>
Created by potrace 1.14, written by Peter Selinger 2001-2017
</metadata>
<g transform="translate(0.000000,700.000000) scale(0.100000,-0.100000)"
fill="#000000" stroke="none">
<path d="M2770 6997 c-3 -3 -30 -7 -60 -10 -74 -8 -268 -35 -305 -42 -267 -53
-564 -166 -775 -294 -19 -11 -42 -24 -50 -28 -8 -3 -17 -9 -20 -12 -3 -4 -25
-19 -50 -35 -359 -231 -697 -630 -876 -1037 -87 -198 -157 -434 -180 -614 -3
-22 -7 -51 -10 -65 -23 -133 -23 -503 0 -640 3 -14 10 -59 16 -100 7 -41 21
-108 31 -149 l18 -74 -25 -41 c-14 -23 -29 -48 -34 -56 -14 -21 -209 -348
-230 -385 -9 -16 -42 -71 -72 -120 -30 -50 -66 -111 -80 -135 -14 -25 -35 -61
-47 -81 l-21 -36 41 -27 c23 -16 184 -129 358 -254 174 -124 339 -241 366
-260 28 -19 55 -40 60 -47 6 -8 10 -223 9 -603 l0 -592 35 -1 c20 0 205 -1
411 -1 l375 0 0 -629 -1 -629 1438 0 1437 0 1 543 c0 298 2 574 5 612 34 453
88 787 190 1183 79 307 198 674 300 930 l17 42 218 0 218 0 176 -176 175 -176
-15 -37 c-9 -20 -17 -40 -18 -46 -23 -99 -28 -141 -23 -215 15 -256 175 -462
426 -552 80 -29 253 -33 341 -9 88 25 98 30 195 91 96 60 199 201 238 325 26
84 30 250 8 330 -56 202 -213 369 -406 431 -122 40 -254 41 -370 3 l-88 -28
-235 234 -234 234 -220 -2 c-215 -2 -219 -2 -215 18 3 11 19 67 36 125 18 58
39 142 48 188 l16 82 247 0 246 0 12 -34 c20 -54 84 -147 140 -201 270 -264
718 -220 931 90 37 53 81 145 92 192 19 79 21 206 5 282 -41 195 -203 387
-379 449 -131 45 -280 52 -392 17 -170 -53 -310 -172 -382 -326 l-28 -58 -230
0 -230 -1 -3 113 c-1 61 -8 151 -15 200 -7 48 -11 90 -8 92 2 3 78 5 168 5
l163 0 234 234 233 233 74 -25 c92 -32 233 -39 329 -16 259 60 453 282 476
546 35 405 -339 738 -734 654 -286 -60 -492 -314 -492 -606 0 -70 21 -173 46
-226 l16 -33 -177 -176 -176 -176 -136 3 -137 3 -37 93 c-88 221 -243 479
-397 662 -391 464 -924 763 -1527 855 -99 15 -464 32 -475 22z"/>
</g>
</svg>
